<svg width="20" height="20" viewBox="0 0 20 20" fill="none" xmlns="http://www.w3.org/2000/svg">
<path d="M19.2786 8.86724C19.2818 8.33057 18.8476 7.89384 18.3109 7.89384H1.97342C1.44116 7.89384 1.00881 8.32366 1.0057 8.85591C1.00256 9.39258 1.43674 9.82931 1.97342 9.82931H18.3109C18.8432 9.82931 19.2755 9.39949 19.2786 8.86724ZM13.3617 1.26841C13.1607 0.82072 12.649 0.583171 12.1648 0.738491L10.1365 1.41459L8.09906 0.738491L8.05338 0.729355C7.56915 0.592307 7.0575 0.848129 6.87477 1.31409L4.6546 7.08836H15.6184L13.3891 1.31409L13.3617 1.26841Z" fill="#434343"/>
<path fill-rule="evenodd" clip-rule="evenodd" d="M11.3558 14.5232C11.7212 12.9061 13.1465 11.6909 14.8459 11.6909C16.8285 11.6909 18.4457 13.3264 18.4457 15.3455C18.4457 17.3647 16.8285 19.0001 14.8459 19.0001C12.9638 19.0001 11.4471 17.5291 11.2827 15.6562C10.2868 15.0075 9.47366 15.4186 9.16302 15.6379C9.01683 17.52 7.4819 19.0001 5.59978 19.0001C3.61716 19.0001 2 17.3647 2 15.3455C2 13.3264 3.61716 11.6909 5.59978 11.6909C7.29004 11.6909 8.71533 12.8878 9.08993 14.5141C9.69294 14.2491 10.4878 14.1486 11.3558 14.5232ZM14.8459 17.9586C13.4206 17.9586 12.2786 16.7891 12.2786 15.3455C12.2786 13.902 13.4206 12.7325 14.8459 12.7325C16.2712 12.7325 17.4224 13.902 17.4224 15.3455C17.4224 16.7891 16.2621 17.9586 14.8459 17.9586ZM3.03242 15.3455C3.03242 16.7891 4.17449 17.9586 5.59978 17.9586C7.02508 17.9586 8.16714 16.7891 8.16714 15.3455C8.16714 13.902 7.02508 12.7325 5.59978 12.7325C4.18362 12.7325 3.03242 13.902 3.03242 15.3455Z" fill="#434343" stroke="#434343" stroke-width="0.5"/>
</svg>
