<svg width="30" height="30" viewBox="0 0 30 30" fill="none" xmlns="http://www.w3.org/2000/svg">
<rect width="30" height="30" rx="15" fill="#30BD57" fill-opacity="0.5"/>
<path d="M12.5213 12.438V9.63979C12.5213 8.98941 12.8074 8.36565 13.3168 7.90576C13.8261 7.44587 14.5169 7.1875 15.2373 7.1875C15.9576 7.1875 16.6484 7.44587 17.1578 7.90576C17.6671 8.36565 17.9532 8.98941 17.9532 9.63979V12.438M9.0625 12.438H20.9375V20.8585C20.9375 21.4596 20.7023 22.0361 20.2836 22.4612C19.8649 22.8862 19.297 23.125 18.7049 23.125H11.2951C10.703 23.125 10.1351 22.8862 9.71642 22.4612C9.29772 22.0361 9.0625 21.4596 9.0625 20.8585V12.438Z" stroke="white" stroke-width="2.4625" stroke-miterlimit="10"/>
</svg>
