<svg width="37" height="37" viewBox="0 0 37 37" fill="none" xmlns="http://www.w3.org/2000/svg">
<g opacity="0.3">
<path d="M21.8304 17.7597C22.9404 17.0197 24.0504 15.5486 24.0504 13.3197C24.0504 10.0501 21.4 7.39966 18.1304 7.39966C14.8609 7.39966 12.2104 10.0501 12.2104 13.3197C12.2104 15.5486 13.3204 17.0197 14.4304 17.7597" stroke="#434343" stroke-width="2.2" stroke-linecap="round"/>
<path d="M23.6801 25.5298C25.5301 27.0098 28.3038 29.5052 28.1201 31.1926C25.1601 34.0398 12.5801 34.7798 8.14014 31.1926C8.14014 30.3829 10.3601 27.3798 11.8403 26.2698" stroke="#434343" stroke-width="2.2" stroke-linecap="round"/>
<path d="M27.7503 13.3197C27.7503 8.00673 23.4432 3.69971 18.1303 3.69971C12.8173 3.69971 8.51025 8.00673 8.51025 13.3197C8.51025 18.6327 12.8173 22.9397 18.1303 22.9397" stroke="#434343" stroke-width="2.2" stroke-linecap="round"/>
<path d="M21.8304 23.3097C21.8304 25.5575 20.0082 27.3797 17.7604 27.3797C15.5126 27.3797 13.6904 25.5575 13.6904 23.3097C13.6904 21.0619 15.5126 19.2397 17.7604 19.2397C20.0082 19.2397 21.8304 21.0619 21.8304 23.3097Z" fill="#434343"/>
</g>
</svg>
