<svg width="40" height="40" viewBox="0 0 40 40" fill="none" xmlns="http://www.w3.org/2000/svg">
<g opacity="0.3">
<path d="M15.1353 3.24319C15.1353 2.64613 15.8613 2.16211 16.7569 2.16211H23.2434C24.139 2.16211 24.865 2.64613 24.865 3.24319V4.32427C24.865 4.92133 24.139 5.40535 23.2434 5.40535H16.7569C15.8613 5.40535 15.1353 4.92133 15.1353 4.32427V3.24319Z" fill="#434343"/>
<path d="M27.5002 2.91675H12.5002C10.8893 2.91675 9.5835 4.22258 9.5835 5.83341V34.1667C9.5835 35.7776 10.8893 37.0834 12.5002 37.0834H27.5002C29.111 37.0834 30.4168 35.7776 30.4168 34.1667V5.83341C30.4168 4.22258 29.111 2.91675 27.5002 2.91675Z" stroke="#434343" stroke-width="2"/>
<path d="M15 32.5H25" stroke="#434343" stroke-width="2" stroke-linecap="round"/>
</g>
</svg>
