<svg width="32" height="32" viewBox="0 0 32 32" fill="none" xmlns="http://www.w3.org/2000/svg">
<g clip-path="url(#clip0_631_116595)">
<path d="M23.2 8.39288L24.3729 5.4856H9.12489L8.73391 6.28741M23.2 8.39288H27.1098L27.8919 15.3703H30.6286M23.2 8.39288L20.7136 15.3703H30.6286M4.78828 17.6258L2.7429 24.0922H4.00621M30.6286 15.3703L28.854 24.0922H27.1098M14.6084 24.0922H16.7796M14.5986 9.41524H5.99705M1.82861 12.9341H13.4257" stroke="#C2A2A9" stroke-width="2" stroke-linecap="round" stroke-linejoin="round"/>
<path d="M11.9659 23.5097C11.9659 24.7942 10.9245 25.8355 9.64003 25.8355C8.35551 25.8355 7.31421 24.7942 7.31421 23.5097C7.31421 22.2251 8.35551 21.1838 9.64003 21.1838C10.9245 21.1838 11.9659 22.2251 11.9659 23.5097Z" stroke="#C2A2A9" stroke-width="2.5" stroke-linecap="round"/>
<path d="M24.2024 23.5101C24.2024 24.7947 23.1611 25.836 21.8766 25.836C20.5921 25.836 19.5508 24.7947 19.5508 23.5101C19.5508 22.2256 20.5921 21.1843 21.8766 21.1843C23.1611 21.1843 24.2024 22.2256 24.2024 23.5101Z" stroke="#C2A2A9" stroke-width="2.5" stroke-linecap="round"/>
</g>
<defs>
<clipPath id="clip0_631_116595">
<rect width="32" height="32" fill="white"/>
</clipPath>
</defs>
</svg>
