<svg width="32" height="32" viewBox="0 0 32 32" fill="none" xmlns="http://www.w3.org/2000/svg">
<path d="M29.3099 13.3346C29.2605 11.5865 29.0942 10.472 28.5342 9.52095C27.7377 8.16828 26.3033 7.41552 23.4343 5.91L20.7677 4.5106C18.4269 3.28218 17.2565 2.66797 15.9974 2.66797C14.7383 2.66797 13.5679 3.28218 11.2271 4.5106L8.56045 5.91C5.69157 7.41552 4.25712 8.16828 3.4606 9.52095C2.66406 10.8736 2.66406 12.5569 2.66406 15.9233V16.0793C2.66406 19.4457 2.66406 21.129 3.4606 22.4817C4.25712 23.8344 5.69157 24.587 8.56045 26.0926L11.2271 27.492C13.5679 28.7204 14.7383 29.3346 15.9974 29.3346C17.2565 29.3346 18.4269 28.7204 20.7677 27.492L23.4343 26.0926C26.3033 24.587 27.7377 23.8344 28.5342 22.4817C29.0942 21.5305 29.2605 20.4161 29.3099 18.668" stroke="#C2A2A9" stroke-width="2" stroke-linecap="round"/>
<path d="M28 10L22.6667 12.6667M22.6667 12.6667C22.6667 12.6667 22.2604 12.8698 22 13C19.6568 14.1716 16 16 16 16M22.6667 12.6667V17.3333M22.6667 12.6667L10 6M16 16L4 10M16 16V28.6667" stroke="#C2A2A9" stroke-width="2" stroke-linecap="round"/>
</svg>
