<svg width="32" height="32" viewBox="0 0 32 32" fill="none" xmlns="http://www.w3.org/2000/svg">
<path d="M17.4211 28.256C15.7144 28.256 14.1357 27.9787 12.6851 27.424C11.2557 26.848 10.0077 26.048 8.94105 25.024C7.89572 23.9787 7.07439 22.7627 6.47705 21.376C5.87972 19.9893 5.58105 18.464 5.58105 16.8C5.58105 15.136 5.87972 13.6107 6.47705 12.224C7.07439 10.8373 7.90639 9.63199 8.97305 8.60799C10.0397 7.56266 11.2877 6.76266 12.7171 6.20799C14.1677 5.63199 15.7464 5.34399 17.4531 5.34399C19.1811 5.34399 20.7704 5.64266 22.2211 6.23999C23.2395 6.63852 24.1507 7.17491 24.9547 7.84917C25.5591 8.35603 25.5184 9.26486 24.952 9.81384C24.3643 10.3835 23.4327 10.3504 22.7769 9.86069C22.2232 9.44724 21.6326 9.115 21.0051 8.86399C19.9384 8.41599 18.7971 8.19199 17.5811 8.19199C16.3224 8.19199 15.1491 8.40533 14.0611 8.83199C12.9944 9.25866 12.0664 9.85599 11.2771 10.624C10.4877 11.392 9.86905 12.3093 9.42105 13.376C8.99439 14.4213 8.78105 15.5627 8.78105 16.8C8.78105 18.0373 8.99439 19.1893 9.42105 20.256C9.86905 21.3013 10.4877 22.208 11.2771 22.976C12.0664 23.744 12.9944 24.3413 14.0611 24.768C15.1491 25.1947 16.3224 25.408 17.5811 25.408C18.7971 25.408 19.9384 25.1947 21.0051 24.768C21.6353 24.5033 22.2283 24.1566 22.7841 23.7281C23.4338 23.2271 24.3691 23.1891 24.9581 23.7601C25.5211 24.3057 25.5613 25.2086 24.9628 25.715C24.1568 26.397 23.2429 26.9453 22.2211 27.36C20.7704 27.9573 19.1704 28.256 17.4211 28.256Z" fill="#671627" fill-opacity="0.4"/>
</svg>
