<svg width="32" height="32" viewBox="0 0 32 32" fill="none" xmlns="http://www.w3.org/2000/svg">
<g opacity="0.5">
<path fill-rule="evenodd" clip-rule="evenodd" d="M27.5681 11.3437C27.3546 11.3437 27.1498 11.2588 26.9988 11.1078L24.1964 8.30533L21.3939 11.1078C21.2429 11.2588 21.0382 11.3437 20.8247 11.3437C20.6655 11.3437 20.5099 11.2964 20.3775 11.208C20.2451 11.1195 20.142 10.9938 20.081 10.8467C20.0201 10.6996 20.0041 10.5377 20.0352 10.3816C20.0662 10.2254 20.1429 10.082 20.2555 9.96942L23.058 7.16693L20.2554 4.36441C20.1088 4.21257 20.0276 4.00918 20.0295 3.79809C20.0313 3.587 20.116 3.38507 20.2652 3.2358C20.4145 3.08653 20.6164 3.00186 20.8275 3.00003C21.0386 2.9982 21.242 3.07937 21.3938 3.22602L24.1964 6.02854L26.9989 3.22602C27.1507 3.07937 27.3541 2.9982 27.5652 3.00003C27.7763 3.00186 27.9782 3.08653 28.1274 3.2358C28.2767 3.38507 28.3614 3.587 28.3633 3.79809C28.3651 4.00918 28.2839 4.21257 28.1373 4.36441L25.3348 7.16693L28.1372 9.96942C28.2498 10.082 28.3264 10.2254 28.3575 10.3816C28.3885 10.5377 28.3726 10.6996 28.3117 10.8467C28.2508 10.9938 28.1476 11.1195 28.0152 11.208C27.8829 11.2964 27.7273 11.3437 27.5681 11.3437ZM5.42454 10.6046C5.64036 10.6939 5.87166 10.7396 6.10521 10.7391C6.33925 10.7401 6.5712 10.6947 6.7876 10.6056C7.004 10.5165 7.20059 10.3853 7.36601 10.2198L12.6176 4.96902C12.7643 4.81718 12.8454 4.61379 12.8435 4.4027C12.8417 4.19161 12.757 3.98972 12.6078 3.84045C12.4585 3.69118 12.2566 3.60647 12.0455 3.60464C11.8344 3.6028 11.6311 3.68397 11.4792 3.83063L6.2284 9.0806C6.2126 9.09657 6.1938 9.10924 6.17307 9.1179C6.15234 9.12655 6.13013 9.13102 6.10767 9.13102C6.08521 9.13102 6.06294 9.12655 6.04222 9.1179C6.02149 9.10924 6.00268 9.09657 5.98689 9.0806L3.56681 6.66131C3.41497 6.51465 3.21158 6.43353 3.00048 6.43537C2.78939 6.4372 2.58746 6.52186 2.43819 6.67113C2.28892 6.8204 2.20426 7.02234 2.20242 7.23343C2.20059 7.44452 2.28176 7.64786 2.42841 7.7997L4.8477 10.219C5.01268 10.3843 5.20872 10.5154 5.42454 10.6046ZM26.5169 29.9097C26.6312 29.9689 26.7582 29.9999 26.887 30C27.0536 30.0002 27.2161 29.9488 27.3522 29.8527C27.4883 29.7567 27.5913 29.6208 27.647 29.4638C29.2998 24.7943 29.1557 21.3557 27.2187 19.2391C24.6376 16.4173 19.6959 16.9157 17.5681 17.2908V10.2407C17.7588 9.22945 17.5502 8.18369 16.986 7.32307C16.7747 7.07388 16.5095 6.87598 16.2104 6.74431C15.9114 6.61265 15.5864 6.55065 15.2599 6.56304C14.9309 6.55222 14.6037 6.61439 14.3016 6.7451C13.9995 6.87581 13.7302 7.07184 13.5129 7.31904C12.9351 8.15212 12.6982 9.17484 12.8511 10.1771V20.4484C11.9156 20.3953 10.6781 20.5241 10.1589 21.5425C9.0108 23.7935 13.3357 28.4011 14.6891 29.7609C14.7637 29.8358 14.8524 29.8954 14.95 29.936C15.0477 29.9767 15.1524 29.9978 15.2582 29.998C15.364 29.9982 15.4687 29.9776 15.5666 29.9373C15.6644 29.897 15.7533 29.8379 15.8283 29.7633C15.9032 29.6886 15.9628 29.5999 16.0035 29.5023C16.0441 29.4046 16.0652 29.3 16.0654 29.1942C16.0656 29.0884 16.045 28.9836 16.0047 28.8858C15.9645 28.788 15.9053 28.699 15.8307 28.6241C13.2431 26.0253 11.2232 22.9981 11.5927 22.2736C11.6507 22.1625 12.1096 21.9217 13.5313 22.1463L14.4612 22.2912V10.1224L14.4524 10.0064C14.3593 9.44505 14.4574 8.86865 14.731 8.36967C14.7972 8.29719 14.8797 8.24139 14.9716 8.20683C15.0635 8.17227 15.1623 8.15993 15.2599 8.17081C15.3502 8.15926 15.442 8.16978 15.5274 8.20147C15.6128 8.23316 15.6893 8.28508 15.7502 8.35277C16.0115 8.87125 16.0892 9.46302 15.9708 10.0314L15.9579 10.1014V19.3173L16.9619 19.0613C17.0263 19.0403 23.4074 17.4559 26.032 20.3285C27.5335 21.9724 27.5657 24.8651 26.1286 28.926C26.0856 29.0474 26.0723 29.1774 26.0899 29.305C26.1075 29.4326 26.1555 29.5541 26.2298 29.6593C26.3041 29.7645 26.4025 29.8504 26.5169 29.9097Z" fill="white"/>
</g>
</svg>
