<svg width="32" height="32" viewBox="0 0 32 32" fill="none" xmlns="http://www.w3.org/2000/svg">
<path d="M29.3126 13.3334C29.2631 11.5853 29.0969 10.4708 28.5369 9.51973C27.7403 8.16705 26.3059 7.41429 23.437 5.90877L20.7703 4.50937C18.4295 3.28096 17.2591 2.66675 16.0001 2.66675C14.741 2.66675 13.5706 3.28096 11.2298 4.50937L8.56313 5.90877C5.69425 7.41429 4.2598 8.16705 3.46328 9.51973C2.66675 10.8724 2.66675 12.5556 2.66675 15.9221V16.0781C2.66675 19.4445 2.66675 21.1278 3.46328 22.4805C4.2598 23.8331 5.69425 24.5858 8.56313 26.0914L11.2298 27.4907C13.5706 28.7191 14.741 29.3334 16.0001 29.3334C17.2591 29.3334 18.4295 28.7191 20.7703 27.4907L23.437 26.0914C26.3059 24.5858 27.7403 23.8331 28.5369 22.4805C29.0969 21.5293 29.2631 20.4149 29.3126 18.6667" stroke="white" stroke-opacity="0.5" stroke-width="2" stroke-linecap="round"/>
<path d="M28 10L22.6667 12.6667M22.6667 12.6667C22.6667 12.6667 22.2604 12.8698 22 13C19.6568 14.1716 16 16 16 16M22.6667 12.6667V17.3333M22.6667 12.6667L10 6M16 16L4 10M16 16V28.6667" stroke="white" stroke-opacity="0.5" stroke-width="2" stroke-linecap="round"/>
</svg>
