<svg width="32" height="32" viewBox="0 0 32 32" fill="none" xmlns="http://www.w3.org/2000/svg">
<g clip-path="url(#clip0_631_116649)">
<path d="M22.4764 29.5813L5.85815 17.3625M26.943 25.9814C27.6066 27.481 26.9289 29.2345 25.4292 29.8981C23.9296 30.5617 22.1761 29.884 21.5125 28.3844C20.8489 26.8848 21.5266 25.1312 23.0262 24.4676C24.5258 23.804 26.2794 24.4817 26.943 25.9814Z" stroke="white" stroke-opacity="0.5" stroke-width="2.5" stroke-linecap="round"/>
<path d="M8.88318 29.5813L25.5015 17.3625M4.41664 25.9814C3.75304 27.481 4.43074 29.2345 5.93038 29.8981C7.43002 30.5617 9.18356 29.884 9.84715 28.3844C10.5108 26.8848 9.83305 25.1312 8.33342 24.4676C6.83378 23.804 5.08023 24.4817 4.41664 25.9814Z" stroke="white" stroke-opacity="0.5" stroke-width="2.5" stroke-linecap="round"/>
<path d="M16.1543 20.1143L16.1544 14.7151M16.1544 14.7151C17.5339 14.183 20.1274 12.2409 19.4652 8.72902C19.2621 7.65166 18.9499 6.72202 18.5908 5.93551M16.1544 14.7151C12.8436 13.917 12.1449 11.5225 12.1449 8.72902C12.1449 7.82606 12.8352 6.84926 13.4002 5.93551M16.1544 14.7151C17.8098 14.8481 22.3435 14.5555 22.6745 12.3207C23.0056 10.0859 22.8125 5.80248 22.6745 3.94014C21.6777 3.94014 18.5534 4.33921 18.5908 5.93551M16.1544 14.7151C14.2231 14.9812 10.1009 14.9968 9.27314 12.6024C8.98047 11.7558 9.27314 5.95116 9.27314 4.22184C10.196 4.35486 13.1833 4.65847 13.4002 5.93551M18.5908 5.93551C17.7793 4.15825 16.7282 3.11178 16.1544 2.74292C15.4145 3.37713 14.2337 4.58774 13.4002 5.93551" stroke="white" stroke-opacity="0.5" stroke-width="2.5" stroke-linecap="round" stroke-linejoin="round"/>
</g>
<defs>
<clipPath id="clip0_631_116649">
<rect width="32" height="32" fill="white"/>
</clipPath>
</defs>
</svg>
