<svg width="32" height="32" viewBox="0 0 32 32" fill="none" xmlns="http://www.w3.org/2000/svg">
<path d="M15.26 6.56348C15.5864 6.55111 15.9113 6.61257 16.2102 6.74414C16.5092 6.87579 16.7743 7.0741 16.9856 7.32324C17.5497 8.18376 17.7583 9.22912 17.5676 10.2402V17.291C19.6955 16.9158 24.6379 16.4174 27.219 19.2393C29.1558 21.3559 29.2995 24.7945 27.6467 29.4639C27.5911 29.6208 27.4879 29.7565 27.3518 29.8525C27.2157 29.9485 27.0535 30.0002 26.887 30C26.7582 29.9999 26.6312 29.9685 26.5168 29.9092C26.4026 29.8499 26.304 29.7643 26.2297 29.6592C26.1555 29.554 26.1077 29.4322 26.0901 29.3047C26.0725 29.1772 26.0852 29.0471 26.1282 28.9258C27.5652 24.865 27.533 21.9721 26.0315 20.3281C23.4092 17.4588 17.0384 19.0377 16.9622 19.0615L15.9583 19.3174V10.1016L15.9709 10.0312C16.0893 9.46292 16.0115 8.87097 15.7502 8.35254C15.6893 8.28492 15.6129 8.23285 15.5276 8.20117C15.4422 8.1695 15.3503 8.15937 15.26 8.1709C15.1625 8.16003 15.0638 8.17254 14.9719 8.20703C14.88 8.24159 14.797 8.29764 14.7307 8.37012C14.4573 8.86899 14.3593 9.44562 14.4524 10.0068L14.4612 10.1221V22.291L13.5315 22.1465C12.1106 21.922 11.6515 22.1622 11.593 22.2734C11.2235 22.998 13.2429 26.0252 15.8303 28.624C15.905 28.699 15.9649 28.7879 16.0051 28.8857C16.0454 28.9835 16.0659 29.0886 16.0657 29.1943C16.0654 29.3 16.0438 29.4044 16.0032 29.502C15.9625 29.5996 15.9033 29.689 15.8284 29.7637C15.7534 29.8382 15.6644 29.8973 15.5667 29.9375C15.4688 29.9778 15.3638 29.9983 15.2581 29.998C15.1525 29.9978 15.0479 29.9771 14.9504 29.9365C14.8528 29.8958 14.7634 29.8357 14.6887 29.7607C13.3352 28.4007 9.0114 23.794 10.1584 21.543C10.6777 20.5246 11.9153 20.3951 12.8508 20.4482V10.1768C12.6981 9.17468 12.9353 8.15228 13.5129 7.31934C13.7302 7.07213 13.9999 6.87583 14.302 6.74512C14.604 6.61451 14.9312 6.55265 15.26 6.56348ZM27.5657 3C27.7764 3.00195 27.9781 3.08641 28.1272 3.23535C28.2764 3.38457 28.3616 3.58685 28.3635 3.79785C28.3654 4.00894 28.2836 4.21242 28.137 4.36426L25.3342 7.16602L28.137 9.96973C28.2495 10.0823 28.3266 10.2257 28.3577 10.3818C28.3886 10.5379 28.3726 10.6997 28.3118 10.8467C28.2508 10.9938 28.1473 11.1195 28.0149 11.208C27.8826 11.2964 27.7267 11.3437 27.5676 11.3438C27.3543 11.3436 27.1501 11.2583 26.9993 11.1074L24.1956 8.30469L21.3938 11.1074C21.2429 11.2584 21.038 11.3437 20.8245 11.3438C20.6653 11.3437 20.5095 11.2964 20.3772 11.208C20.2449 11.1196 20.1422 10.9937 20.0813 10.8467C20.0204 10.6997 20.0044 10.5379 20.0354 10.3818C20.0664 10.2258 20.1428 10.0823 20.2551 9.96973L23.0579 7.16602L20.2551 4.36426C20.1086 4.21244 20.0277 4.00883 20.0295 3.79785C20.0314 3.58685 20.1157 3.38456 20.2649 3.23535C20.4141 3.08615 20.6164 3.00187 20.8274 3C21.0384 2.99817 21.242 3.07908 21.3938 3.22559L24.1956 6.02832L26.9993 3.22559C27.1511 3.07919 27.3548 2.99817 27.5657 3ZM12.0452 3.60449C12.2563 3.60633 12.4584 3.69155 12.6077 3.84082C12.7568 3.99 12.8421 4.19144 12.844 4.40234C12.8458 4.61341 12.7641 4.81691 12.6174 4.96875L7.36646 10.2197C7.20104 10.3853 7.00375 10.5163 6.78735 10.6055C6.571 10.6946 6.33871 10.7403 6.10474 10.7393C5.87135 10.7397 5.63975 10.6937 5.42407 10.6045C5.20843 10.5152 5.01276 10.384 4.8479 10.2188L2.42798 7.7998C2.28142 7.64798 2.20056 7.44441 2.20239 7.2334C2.20423 7.02237 2.28855 6.82015 2.43774 6.6709C2.58696 6.52169 2.78924 6.43744 3.00024 6.43555C3.21126 6.43371 3.41483 6.51458 3.56665 6.66113L5.98657 9.08105C6.00235 9.09699 6.02154 9.10953 6.04224 9.11816C6.06293 9.12678 6.08525 9.13086 6.10767 9.13086C6.1301 9.13086 6.15239 9.12679 6.1731 9.11816C6.1938 9.10952 6.21297 9.097 6.22876 9.08105L11.4788 3.83105C11.6305 3.68448 11.8342 3.60274 12.0452 3.60449Z" fill="#C2A2A9"/>
</svg>
