<svg width="32" height="32" viewBox="0 0 32 32" fill="none" xmlns="http://www.w3.org/2000/svg">
<path d="M12.7143 22.4001V26.0573M21.6939 18.5144H25.2857V26.0573M21.6939 18.5144V23.3144H16.3061V18.5144H19.5H21.6939ZM25.2857 26.0573V27.4287H12.7143V26.0573M25.2857 26.0573H30C29.744 23.879 28.5 20.5715 25.2857 19.4397M12.7143 26.0573H8C8 25.4456 8.16782 24.6294 8.51149 23.7715" stroke="#C2A2A9" stroke-width="2" stroke-linecap="round" stroke-linejoin="round"/>
<path d="M29 8.54808H16C16 4.82759 18.9922 4 21.1213 4C23.2503 4 26.2424 4.82759 26.2424 8.55172C27.0303 13.931 23.9496 16 21.1213 16H19" stroke="#C2A2A9" stroke-width="2" stroke-linecap="round" stroke-linejoin="round"/>
<path d="M7.77147 11.1999V14.9142L9.75242 16.1523M13.7143 14.1714C13.7143 17.4535 11.0536 20.1142 7.77147 20.1142C4.48932 20.1142 1.82861 17.4535 1.82861 14.1714C1.82861 10.8892 4.48932 8.22852 7.77147 8.22852C11.0536 8.22852 13.7143 10.8892 13.7143 14.1714Z" stroke="#C2A2A9" stroke-width="2" stroke-linecap="round" stroke-linejoin="round"/>
</svg>
