<svg width="32" height="32" viewBox="0 0 32 32" fill="none" xmlns="http://www.w3.org/2000/svg">
<path d="M3.65723 2.1179C3.65723 2.1179 6.66302 2.11836 6.66302 2.4131C8.46884 3.2983 8.16741 7.95246 8.16741 7.95246V15.2254C8.16741 17.2677 8.16741 17.9443 8.16741 17.9443M15.1831 21.06H20.1933C22.2733 21.06 23.3132 21.06 24.1078 20.6625C24.8066 20.3129 25.3747 19.7551 25.7308 19.0689C26.1356 18.2888 26.2365 18.2207 26.7321 16.2384C27.0765 14.8607 27.4197 13.9275 27.7096 11.8595C27.9649 10.0391 28.2979 9.62521 26.4467 9.62521H25.2403M9.16765 9.8048H14.726M27.526 1.82861L3.65723 28.8" stroke="white" stroke-opacity="0.5" stroke-width="2.5" stroke-linecap="round" stroke-linejoin="round"/>
<path d="M11.8792 24.9398C12.2227 25.2974 12.4594 25.7639 12.5292 26.2933C12.7034 27.6133 11.7744 28.8246 10.4544 28.9987C9.70358 29.0977 8.98793 28.8399 8.47832 28.3562" stroke="white" stroke-opacity="0.5" stroke-width="2.5" stroke-linecap="round"/>
<path d="M23.6329 26.5697C23.6329 27.9012 22.5535 28.9806 21.2221 28.9806C19.8906 28.9806 18.8113 27.9012 18.8113 26.5697C18.8113 25.2383 19.8906 24.1589 21.2221 24.1589C22.5535 24.1589 23.6329 25.2383 23.6329 26.5697Z" stroke="white" stroke-opacity="0.5" stroke-width="2.5" stroke-linecap="round"/>
</svg>
