<svg width="32" height="32" viewBox="0 0 32 32" fill="none" xmlns="http://www.w3.org/2000/svg">
<path d="M17.4213 28.256C15.7146 28.256 14.136 27.9787 12.6853 27.424C11.256 26.848 10.008 26.048 8.9413 25.024C7.89597 23.9787 7.07463 22.7627 6.4773 21.376C5.87997 19.9893 5.5813 18.464 5.5813 16.8C5.5813 15.136 5.87997 13.6107 6.4773 12.224C7.07463 10.8373 7.90663 9.63199 8.9733 8.60799C10.04 7.56266 11.288 6.76266 12.7173 6.20799C14.168 5.63199 15.7466 5.34399 17.4533 5.34399C19.1813 5.34399 20.7706 5.64266 22.2213 6.23999C23.2398 6.63852 24.151 7.17491 24.955 7.84917C25.5594 8.35603 25.5187 9.26486 24.9523 9.81384C24.3645 10.3835 23.433 10.3504 22.7771 9.86069C22.2234 9.44724 21.6328 9.115 21.0053 8.86399C19.9386 8.41599 18.7973 8.19199 17.5813 8.19199C16.3226 8.19199 15.1493 8.40533 14.0613 8.83199C12.9946 9.25866 12.0666 9.85599 11.2773 10.624C10.488 11.392 9.8693 12.3093 9.4213 13.376C8.99463 14.4213 8.7813 15.5627 8.7813 16.8C8.7813 18.0373 8.99463 19.1893 9.4213 20.256C9.8693 21.3013 10.488 22.208 11.2773 22.976C12.0666 23.744 12.9946 24.3413 14.0613 24.768C15.1493 25.1947 16.3226 25.408 17.5813 25.408C18.7973 25.408 19.9386 25.1947 21.0053 24.768C21.6356 24.5033 22.2286 24.1566 22.7844 23.7281C23.434 23.2271 24.3693 23.1891 24.9584 23.7601C25.5214 24.3057 25.5616 25.2086 24.963 25.715C24.1571 26.397 23.2432 26.9453 22.2213 27.36C20.7706 27.9573 19.1706 28.256 17.4213 28.256Z" fill="#671627" fill-opacity="0.4"/>
</svg>
