<svg width="32" height="32" viewBox="0 0 32 32" fill="none" xmlns="http://www.w3.org/2000/svg">
<g clip-path="url(#clip0_631_116619)">
<path d="M17.6809 2.59999C15.0902 2.59999 4.51522 2.59999 3.52572 3.10777C2.65532 3.55443 1.94767 4.26714 1.50418 5.14376C1 6.14032 1 7.44492 1 10.0541V21.5459C1 24.1551 1 25.4596 1.50418 26.4563C1.94767 27.3329 2.65532 28.0456 3.52572 28.4922C4.51522 29 5.81057 29 8.40125 29H19.8115C22.4023 29 23.6975 29 24.6871 28.4922C25.5575 28.0456 26.2651 27.3329 26.7086 26.4563C27.2128 25.4596 27.2128 24.1551 27.2128 21.5459V15.7998M14.7021 8.5999L21.0045 13.3998L29 2M7.20829 21.9446H21.0045M7.20829 16.3998H12.9149" stroke="white" stroke-opacity="0.5" stroke-width="2.5" stroke-linecap="round" stroke-linejoin="round"/>
</g>
<defs>
<clipPath id="clip0_631_116619">
<rect width="32" height="32" fill="white"/>
</clipPath>
</defs>
</svg>
