<svg width="32" height="32" viewBox="0 0 32 32" fill="none" xmlns="http://www.w3.org/2000/svg">
<path d="M18.6438 6.19536H21.4992V9.36803M21.4992 9.36803H26.5754L28.7963 16.9824H30.3826M21.4992 9.36803V16.9824H30.3826M2.78041 19.5206V26.5004L4.00049 26.501M30.3826 16.9824V26.5004H28.4792M15.3366 26.501H17.0005M6.5 12.0001L9.44302 14.0001L12 9.36803M17.0574 11.2716C17.0574 15.4769 13.6483 18.886 9.44302 18.886C5.2377 18.886 1.82861 15.4769 1.82861 11.2716C1.82861 7.06631 5.2377 3.65723 9.44302 3.65723C13.6483 3.65723 17.0574 7.06631 17.0574 11.2716Z" stroke="white" stroke-opacity="0.5" stroke-width="2" stroke-linecap="round" stroke-linejoin="round"/>
<path d="M11.9811 25.8655C11.9811 27.2673 10.8447 28.4037 9.44292 28.4037C8.04115 28.4037 6.90479 27.2673 6.90479 25.8655C6.90479 24.4638 8.04115 23.3274 9.44292 23.3274C10.8447 23.3274 11.9811 24.4638 11.9811 25.8655Z" stroke="white" stroke-opacity="0.5" stroke-width="2" stroke-linecap="round"/>
<path d="M25.3062 25.8655C25.3062 27.2673 24.1699 28.4037 22.7681 28.4037C21.3663 28.4037 20.23 27.2673 20.23 25.8655C20.23 24.4638 21.3663 23.3274 22.7681 23.3274C24.1699 23.3274 25.3062 24.4638 25.3062 25.8655Z" stroke="white" stroke-opacity="0.5" stroke-width="2" stroke-linecap="round"/>
</svg>
