<svg width="32" height="32" viewBox="0 0 32 32" fill="none" xmlns="http://www.w3.org/2000/svg">
<path d="M18.6438 6.19536H21.4992V9.36803M21.4992 9.36803H26.5754L28.7963 16.9824H30.3826M21.4992 9.36803V16.9824H30.3826M2.78041 19.5206V26.5004H4.15904M30.3826 16.9824V26.5004H28.4792M6.40004 7.77151L11.8858 14.1715M14.8366 26.5004H17.206M12.3429 7.77151L6.40004 14.1715M17.0574 11.2716C17.0574 15.4769 13.6483 18.886 9.44302 18.886C5.2377 18.886 1.82861 15.4769 1.82861 11.2716C1.82861 7.06631 5.2377 3.65723 9.44302 3.65723C13.6483 3.65723 17.0574 7.06631 17.0574 11.2716Z" stroke="white" stroke-opacity="0.5" stroke-width="2" stroke-linecap="round" stroke-linejoin="round"/>
<path d="M11.9811 25.8653C11.9811 27.2671 10.8447 28.4034 9.44292 28.4034C8.04115 28.4034 6.90479 27.2671 6.90479 25.8653C6.90479 24.4635 8.04115 23.3271 9.44292 23.3271C10.8447 23.3271 11.9811 24.4635 11.9811 25.8653Z" stroke="white" stroke-opacity="0.5" stroke-width="2.5" stroke-linecap="round"/>
<path d="M25.3062 25.8653C25.3062 27.2671 24.1699 28.4034 22.7681 28.4034C21.3663 28.4034 20.23 27.2671 20.23 25.8653C20.23 24.4635 21.3663 23.3271 22.7681 23.3271C24.1699 23.3271 25.3062 24.4635 25.3062 25.8653Z" stroke="white" stroke-opacity="0.5" stroke-width="2.5" stroke-linecap="round"/>
</svg>
