<svg width="32" height="32" viewBox="0 0 32 32" fill="none" xmlns="http://www.w3.org/2000/svg">
<g clip-path="url(#clip0_11324_2221)">
<path d="M22.4766 29.5812L5.85828 17.3625M26.9431 25.9813C27.6067 27.4809 26.929 29.2345 25.4294 29.8981C23.9297 30.5617 22.1762 29.884 21.5126 28.3843C20.849 26.8847 21.5267 25.1312 23.0263 24.4676C24.526 23.804 26.2795 24.4817 26.9431 25.9813Z" stroke="#C2A2A9" stroke-width="2" stroke-linecap="round"/>
<path d="M8.88331 29.5812L25.5016 17.3625M4.41676 25.9813C3.75316 27.4809 4.43087 29.2345 5.9305 29.8981C7.43014 30.5617 9.18368 29.884 9.84728 28.3843C10.5109 26.8847 9.83318 25.1312 8.33354 24.4676C6.8339 23.804 5.08036 24.4817 4.41676 25.9813Z" stroke="#C2A2A9" stroke-width="2" stroke-linecap="round"/>
<path d="M16.1543 20.1143L16.1544 14.7151M16.1544 14.7151C17.5339 14.183 20.1274 12.2408 19.4652 8.72896C19.2621 7.65159 18.9499 6.72196 18.5908 5.93545M16.1544 14.7151C12.8436 13.9169 12.1449 11.5225 12.1449 8.72896C12.1449 7.826 12.8352 6.8492 13.4002 5.93545M16.1544 14.7151C17.8098 14.8481 22.3435 14.5554 22.6745 12.3206C23.0056 10.0858 22.8125 5.80242 22.6745 3.94008C21.6777 3.94008 18.5534 4.33915 18.5908 5.93545M16.1544 14.7151C14.2231 14.9811 10.1009 14.9968 9.27314 12.6023C8.98047 11.7557 9.27314 5.9511 9.27314 4.22178C10.196 4.3548 13.1833 4.65841 13.4002 5.93545M18.5908 5.93545C17.7793 4.15819 16.7282 3.11172 16.1544 2.74286C15.4145 3.37707 14.2337 4.58768 13.4002 5.93545" stroke="#C2A2A9" stroke-width="2" stroke-linecap="round" stroke-linejoin="round"/>
</g>
<defs>
<clipPath id="clip0_11324_2221">
<rect width="32" height="32" fill="white"/>
</clipPath>
</defs>
</svg>
