<svg width="32" height="32" viewBox="0 0 32 32" fill="none" xmlns="http://www.w3.org/2000/svg">
<path d="M9.44801 11V21.38H7.30927L3.13874 14.422V21.38H1V11H3.13874L7.3164 17.9652V11H9.44801Z" fill="white" fill-opacity="0.5"/>
<path d="M18.2739 19.7118V21.38H12.7488V19.7118H18.2739ZM13.4474 11V21.38H11.3087V11H13.4474ZM17.5538 15.2276V16.853H12.7488V15.2276H17.5538ZM18.2667 11V12.6753H12.7488V11H18.2667Z" fill="white" fill-opacity="0.5"/>
<path d="M22.0238 19.7332L24.0912 11H25.2461L25.5099 12.4543L23.307 21.38H22.0666L22.0238 19.7332ZM20.9615 11L22.6725 19.7332L22.5299 21.38H21.1469L18.8442 11H20.9615ZM27.3278 19.6975L29.0174 11H31.1348L28.8392 21.38H27.4562L27.3278 19.6975ZM25.8949 11L27.9766 19.7688L27.9196 21.38H26.6791L24.4619 12.4472L24.7471 11H25.8949Z" fill="white" fill-opacity="0.5"/>
</svg>
