<svg width="32" height="32" viewBox="0 0 32 32" fill="none" xmlns="http://www.w3.org/2000/svg">
<g clip-path="url(#clip0_10681_7277)">
<path d="M5.87012 14.979H2.41895L2.40039 13.1792H5.35986C5.86702 13.1792 6.29069 13.1081 6.63086 12.9658C6.97103 12.8236 7.2277 12.6164 7.40088 12.3442C7.58024 12.0721 7.66992 11.7412 7.66992 11.3516C7.66992 10.9186 7.58643 10.5661 7.41943 10.2939C7.25863 10.0218 7.00505 9.82389 6.65869 9.7002C6.31234 9.57031 5.87321 9.50537 5.34131 9.50537H3.24463V21H0.693359V7.49219H5.34131C6.10824 7.49219 6.79167 7.56641 7.3916 7.71484C7.99772 7.8571 8.51107 8.07975 8.93164 8.38281C9.35221 8.68587 9.67074 9.06624 9.88721 9.52393C10.1099 9.98161 10.2212 10.5259 10.2212 11.1567C10.2212 11.7134 10.0913 12.2267 9.83154 12.6968C9.57796 13.1606 9.18522 13.5379 8.65332 13.8286C8.1276 14.1193 7.45964 14.2863 6.64941 14.3296L5.87012 14.979ZM5.75879 21H1.66748L2.73438 18.9961H5.75879C6.26595 18.9961 6.68343 18.9126 7.01123 18.7456C7.34521 18.5786 7.59261 18.3498 7.75342 18.0591C7.92041 17.7622 8.00391 17.422 8.00391 17.0386C8.00391 16.618 7.92969 16.2531 7.78125 15.9438C7.639 15.6346 7.41016 15.3965 7.09473 15.2295C6.78548 15.0625 6.37728 14.979 5.87012 14.979H3.2168L3.23535 13.1792H6.6123L7.19678 13.875C7.97607 13.8812 8.61003 14.0358 9.09863 14.3389C9.59342 14.6419 9.95833 15.0316 10.1934 15.5078C10.4284 15.984 10.5459 16.4974 10.5459 17.0479C10.5459 17.9137 10.3573 18.6405 9.97998 19.228C9.60889 19.8156 9.06462 20.2578 8.34717 20.5547C7.6359 20.8516 6.77311 21 5.75879 21ZM16.6875 19.2559C17.0339 19.2559 17.3431 19.1878 17.6152 19.0518C17.8874 18.9157 18.1038 18.724 18.2646 18.4766C18.4316 18.2292 18.5213 17.9416 18.5337 17.6138H20.8438C20.8314 18.2941 20.6396 18.9033 20.2686 19.4414C19.8975 19.9795 19.4027 20.4062 18.7842 20.7217C18.1719 21.0309 17.4854 21.1855 16.7246 21.1855C15.9515 21.1855 15.2773 21.0557 14.7021 20.7959C14.127 20.5361 13.6476 20.1743 13.2642 19.7104C12.8869 19.2466 12.6024 18.7085 12.4106 18.0962C12.2251 17.4839 12.1323 16.8283 12.1323 16.1294V15.8325C12.1323 15.1336 12.2251 14.478 12.4106 13.8657C12.6024 13.2534 12.8869 12.7153 13.2642 12.2515C13.6476 11.7876 14.127 11.4258 14.7021 11.166C15.2773 10.9062 15.9484 10.7764 16.7153 10.7764C17.5256 10.7764 18.2368 10.9341 18.8491 11.2495C19.4676 11.5649 19.95 12.0103 20.2964 12.5854C20.6489 13.1606 20.8314 13.8379 20.8438 14.6172H18.5337C18.5213 14.2585 18.4409 13.9368 18.2925 13.6523C18.144 13.3678 17.9338 13.139 17.6616 12.9658C17.3895 12.7926 17.0586 12.7061 16.6689 12.7061C16.2546 12.7061 15.9082 12.7926 15.6299 12.9658C15.3577 13.139 15.1444 13.3771 14.9897 13.6802C14.8413 13.9771 14.7362 14.311 14.6743 14.6821C14.6187 15.047 14.5908 15.4305 14.5908 15.8325V16.1294C14.5908 16.5376 14.6187 16.9272 14.6743 17.2983C14.7362 17.6694 14.8413 18.0034 14.9897 18.3003C15.1444 18.591 15.3577 18.8229 15.6299 18.9961C15.9082 19.1693 16.2607 19.2559 16.6875 19.2559ZM26.9854 21.1855C26.2246 21.1855 25.5412 21.0618 24.9351 20.8145C24.3289 20.5671 23.8125 20.2238 23.3857 19.7847C22.9652 19.3394 22.6405 18.8229 22.4116 18.2354C22.189 17.6416 22.0776 17.0046 22.0776 16.3242V15.9531C22.0776 15.18 22.189 14.478 22.4116 13.8472C22.6343 13.2101 22.9497 12.6628 23.3579 12.2051C23.7661 11.7474 24.2547 11.3949 24.8237 11.1475C25.3927 10.9001 26.0205 10.7764 26.707 10.7764C27.4183 10.7764 28.0461 10.897 28.5903 11.1382C29.1346 11.3732 29.5892 11.7072 29.9541 12.1401C30.319 12.5731 30.5942 13.0926 30.7798 13.6987C30.9653 14.2987 31.0581 14.9635 31.0581 15.6934V16.7231H23.1909V15.0347H28.646V14.8491C28.6336 14.4595 28.5594 14.1038 28.4233 13.7822C28.2873 13.4544 28.077 13.1947 27.7925 13.0029C27.508 12.805 27.14 12.7061 26.6885 12.7061C26.3236 12.7061 26.005 12.7865 25.7329 12.9473C25.467 13.1019 25.2443 13.3245 25.0649 13.6152C24.8918 13.8997 24.7619 14.2399 24.6753 14.6357C24.5887 15.0316 24.5454 15.4707 24.5454 15.9531V16.3242C24.5454 16.7448 24.6011 17.1344 24.7124 17.4932C24.8299 17.8519 25 18.1642 25.2227 18.4302C25.4515 18.6899 25.7236 18.894 26.0391 19.0425C26.3607 19.1847 26.7256 19.2559 27.1338 19.2559C27.6471 19.2559 28.111 19.1569 28.5254 18.959C28.946 18.7549 29.3109 18.4549 29.6201 18.0591L30.854 19.3394C30.6437 19.6486 30.3592 19.9455 30.0005 20.23C29.6479 20.5145 29.2212 20.7464 28.7202 20.9258C28.2192 21.099 27.641 21.1855 26.9854 21.1855Z" fill="#C2A2A9"/>
</g>
<defs>
<clipPath id="clip0_10681_7277">
<rect width="32" height="32" fill="white"/>
</clipPath>
</defs>
</svg>
